<svg width="119" height="18" viewBox="0 0 119 18" fill="none" xmlns="http://www.w3.org/2000/svg">
<path d="M10.219 8.70666C11.1559 8.90631 11.9084 9.37473 12.4767 10.1119C13.0449 10.8337 13.329 11.6631 13.329 12.5999C13.329 13.9514 12.853 15.0265 11.9008 15.8251C10.9639 16.6084 9.6508 17 7.96142 17H0.428298L0.428298 0.827986L7.70801 0.827986C9.35132 0.827986 10.6337 1.20426 11.5552 1.9568C12.492 2.70935 12.9605 3.73065 12.9605 5.02073C12.9605 5.97293 12.707 6.76387 12.2002 7.39355C11.7088 8.02323 11.0484 8.46093 10.219 8.70666ZM4.36763 7.37051L6.94778 7.37051C7.59282 7.37051 8.08428 7.23229 8.42216 6.95584C8.77539 6.66404 8.95201 6.24169 8.95201 5.6888C8.95201 5.13592 8.77539 4.71357 8.42216 4.42177C8.08428 4.12996 7.59282 3.98406 6.94778 3.98406H4.36763L4.36763 7.37051ZM7.2703 13.8209C7.9307 13.8209 8.43751 13.675 8.79075 13.3832C9.15934 13.076 9.34364 12.6383 9.34364 12.0701C9.34364 11.5018 9.15166 11.0564 8.76771 10.7339C8.39912 10.4114 7.88462 10.2501 7.22423 10.2501L4.36763 10.2501L4.36763 13.8209L7.2703 13.8209ZM25.6811 14.1434H19.6453L18.6778 17H14.5542L20.4056 0.827986L24.9669 0.827986L30.8183 17H26.6486L25.6811 14.1434ZM24.6674 11.1025L22.6632 5.18199L20.682 11.1025H24.6674ZM40.8465 17L37.483 10.8952H36.5385V17H32.5992V0.827986L39.2108 0.827986C40.4855 0.827986 41.5683 1.05068 42.459 1.49606C43.3652 1.94144 44.0409 2.55576 44.4863 3.33902C44.9317 4.10693 45.1544 4.96698 45.1544 5.91918C45.1544 6.99424 44.8472 7.95412 44.2329 8.79881C43.6339 9.6435 42.7432 10.2425 41.5606 10.5957L45.2926 17H40.8465ZM36.5385 8.1077L38.9804 8.1077C39.7023 8.1077 40.2398 7.93108 40.593 7.57784C40.9616 7.22461 41.1459 6.72547 41.1459 6.08043C41.1459 5.46611 40.9616 4.98234 40.593 4.6291C40.2398 4.27587 39.7023 4.09925 38.9804 4.09925H36.5385V8.1077ZM57.418 8.70666C58.3549 8.90631 59.1074 9.37473 59.6756 10.1119C60.2439 10.8337 60.528 11.6631 60.528 12.5999C60.528 13.9514 60.0519 15.0265 59.0997 15.8251C58.1629 16.6084 56.8498 17 55.1604 17L47.6273 17V0.827986L54.907 0.827986C56.5503 0.827986 57.8327 1.20426 58.7542 1.9568C59.691 2.70935 60.1594 3.73065 60.1594 5.02073C60.1594 5.97293 59.906 6.76387 59.3992 7.39355C58.9077 8.02323 58.2473 8.46093 57.418 8.70666ZM51.5666 7.37051H54.1468C54.7918 7.37051 55.2832 7.23229 55.6211 6.95584C55.9744 6.66404 56.151 6.24169 56.151 5.6888C56.151 5.13592 55.9744 4.71357 55.6211 4.42177C55.2832 4.12996 54.7918 3.98406 54.1468 3.98406H51.5666V7.37051ZM54.4693 13.8209C55.1297 13.8209 55.6365 13.675 55.9897 13.3832C56.3583 13.076 56.5426 12.6383 56.5426 12.0701C56.5426 11.5018 56.3506 11.0564 55.9667 10.7339C55.5981 10.4114 55.0836 10.2501 54.4232 10.2501H51.5666V13.8209H54.4693ZM66.7522 3.98406V7.25533L72.0276 7.25533V10.2962L66.7522 10.2962V13.8439L72.7188 13.8439V17H62.8128V0.827986L72.7188 0.827986V3.98406L66.7522 3.98406ZM74.6082 8.89096C74.6082 7.29372 74.9537 5.8731 75.6448 4.6291C76.3359 3.36974 77.2958 2.39451 78.5245 1.70339C79.7685 0.996924 81.1737 0.643689 82.7402 0.643689C84.66 0.643689 86.3033 1.1505 87.6702 2.16413C89.037 3.17777 89.9508 4.55999 90.4116 6.31081H86.0806C85.7581 5.63505 85.2973 5.12056 84.6984 4.76732C84.1148 4.41409 83.4467 4.23747 82.6942 4.23747C81.4809 4.23747 80.498 4.65982 79.7454 5.50451C78.9929 6.3492 78.6166 7.47802 78.6166 8.89096C78.6166 10.3039 78.9929 11.4327 79.7454 12.2774C80.498 13.1221 81.4809 13.5444 82.6942 13.5444C83.4467 13.5444 84.1148 13.3678 84.6984 13.0146C85.2973 12.6614 85.7581 12.1469 86.0806 11.4711H90.4116C89.9508 13.2219 89.037 14.6041 87.6702 15.6178C86.3033 16.616 84.66 17.1152 82.7402 17.1152C81.1737 17.1152 79.7685 16.7696 78.5245 16.0785C77.2958 15.372 76.3359 14.3968 75.6448 13.1528C74.9537 11.9088 74.6082 10.4882 74.6082 8.89096ZM96.6942 0.827986V10.5036C96.6942 11.4711 96.9323 12.216 97.4084 12.7381C97.8845 13.2603 98.5833 13.5214 99.5047 13.5214C100.426 13.5214 101.133 13.2603 101.624 12.7381C102.116 12.216 102.361 11.4711 102.361 10.5036V0.827986L106.301 0.827986V10.4805C106.301 11.9242 105.994 13.1451 105.379 14.1434C104.765 15.1417 103.936 15.8942 102.891 16.401C101.862 16.9079 100.71 17.1613 99.4356 17.1613C98.1609 17.1613 97.0167 16.9155 96.0031 16.4241C95.0048 15.9173 94.2139 15.1647 93.6303 14.1664C93.0467 13.1528 92.7549 11.9242 92.7549 10.4805V0.827986L96.6942 0.827986ZM113.006 3.98406V7.25533L118.282 7.25533V10.2962L113.006 10.2962V13.8439L118.973 13.8439V17H109.067V0.827986L118.973 0.827986V3.98406L113.006 3.98406Z" fill="white"/>
</svg>
